<svg width="32" height="32" viewBox="0 0 32 32" fill="none" xmlns="http://www.w3.org/2000/svg">
<rect width="32" height="32" rx="16" fill="#FE815F"/>
<g filter="url(#filter0_d_64335_38359)">
<g opacity="0.8" filter="url(#filter1_b_64335_38359)">
<path fill-rule="evenodd" clip-rule="evenodd" d="M24.1151 19.0279C24.1151 21.8749 21.7726 24.1828 18.8829 24.1828H9V20.7462H18.8829C19.8462 20.7462 20.627 19.9769 20.627 19.0279C20.627 18.0789 19.8462 17.3097 18.8829 17.3097H15.3948V13.8731H18.8829C19.8462 13.8731 20.627 13.1038 20.627 12.1548C20.627 11.2058 19.8462 10.4366 18.8829 10.4366H9V7H18.8829C21.7726 7 24.1151 9.30789 24.1151 12.1548C24.1151 13.4751 23.6113 14.6794 22.7828 15.5914C23.6113 16.5034 24.1151 17.7077 24.1151 19.0279Z" fill="white" fill-opacity="0.8"/>
</g>
<g filter="url(#filter2_d_64335_38359)">
<path d="M9 7C13.8161 7 17.7202 10.8465 17.7202 15.5914C17.7202 20.3363 13.8161 24.1828 9 24.1828V20.7462C11.8896 20.7462 14.2321 18.4383 14.2321 15.5914C14.2321 12.7444 11.8896 10.4366 9 10.4366V7Z" fill="white"/>
</g>
</g>
<defs>
<filter id="filter0_d_64335_38359" x="4.44874" y="2.59097" width="24.2178" height="26.2861" filterUnits="userSpaceOnUse" color-interpolation-filters="sRGB">
<feFlood flood-opacity="0" result="BackgroundImageFix"/>
<feColorMatrix in="SourceAlpha" type="matrix" values="0 0 0 0 0 0 0 0 0 0 0 0 0 0 0 0 0 0 127 0" result="hardAlpha"/>
<feOffset dy="0.142227"/>
<feGaussianBlur stdDeviation="2.27563"/>
<feComposite in2="hardAlpha" operator="out"/>
<feColorMatrix type="matrix" values="0 0 0 0 0.937413 0 0 0 0 0.276563 0 0 0 0 0.131499 0 0 0 0.4 0"/>
<feBlend mode="normal" in2="BackgroundImageFix" result="effect1_dropShadow_64335_38359"/>
<feBlend mode="normal" in="SourceGraphic" in2="effect1_dropShadow_64335_38359" result="shape"/>
</filter>
<filter id="filter1_b_64335_38359" x="-19.4454" y="-21.4454" width="72.006" height="74.0744" filterUnits="userSpaceOnUse" color-interpolation-filters="sRGB">
<feFlood flood-opacity="0" result="BackgroundImageFix"/>
<feGaussianBlur in="BackgroundImageFix" stdDeviation="14.2227"/>
<feComposite in2="SourceAlpha" operator="in" result="effect1_backgroundBlur_64335_38359"/>
<feBlend mode="normal" in="SourceGraphic" in2="effect1_backgroundBlur_64335_38359" result="shape"/>
</filter>
<filter id="filter2_d_64335_38359" x="7.86218" y="4.72437" width="13.272" height="21.7349" filterUnits="userSpaceOnUse" color-interpolation-filters="sRGB">
<feFlood flood-opacity="0" result="BackgroundImageFix"/>
<feColorMatrix in="SourceAlpha" type="matrix" values="0 0 0 0 0 0 0 0 0 0 0 0 0 0 0 0 0 0 127 0" result="hardAlpha"/>
<feOffset dx="1.13782"/>
<feGaussianBlur stdDeviation="1.13782"/>
<feComposite in2="hardAlpha" operator="out"/>
<feColorMatrix type="matrix" values="0 0 0 0 1 0 0 0 0 0.4 0 0 0 0 0.211765 0 0 0 0.44 0"/>
<feBlend mode="normal" in2="BackgroundImageFix" result="effect1_dropShadow_64335_38359"/>
<feBlend mode="normal" in="SourceGraphic" in2="effect1_dropShadow_64335_38359" result="shape"/>
</filter>
</defs>
</svg>
