<svg width="32" height="32" viewBox="0 0 32 32" fill="none" xmlns="http://www.w3.org/2000/svg">
<g clip-path="url(#clip0_610_2483)">
<path d="M16 32C24.8365 32 32 24.8365 32 16C32 7.16344 24.8365 0 16 0C7.16344 0 0 7.16344 0 16C0 24.8365 7.16344 32 16 32Z" fill="#8D91AB"/>
<path d="M27.6803 15.9998C27.6803 9.54914 22.451 4.31982 16.0003 4.31982C9.54963 4.31982 4.32031 9.54914 4.32031 15.9998C4.32031 22.4505 9.54963 27.6798 16.0003 27.6798C22.451 27.6798 27.6803 22.4505 27.6803 15.9998Z" fill="white" fill-opacity="0.4"/>
<path opacity="0.4" d="M16.7288 24.0298C21.5668 24.0298 25.4888 20.1078 25.4888 15.2698C25.4888 10.4318 21.5668 6.50977 16.7288 6.50977C11.8907 6.50977 7.96875 10.4318 7.96875 15.2698C7.96875 20.1078 11.8907 24.0298 16.7288 24.0298Z" fill="white"/>
<path opacity="0.9" d="M19.6525 18.1898C22.8778 18.1898 25.4925 15.5751 25.4925 12.3498C25.4925 9.12442 22.8778 6.50977 19.6525 6.50977C16.4272 6.50977 13.8125 9.12442 13.8125 12.3498C13.8125 15.5751 16.4272 18.1898 19.6525 18.1898Z" fill="white"/>
</g>
<defs>
<clipPath id="clip0_610_2483">
<rect width="32" height="32" fill="white"/>
</clipPath>
</defs>
</svg>
