<svg width="32" height="32" viewBox="0 0 32 32" fill="none" xmlns="http://www.w3.org/2000/svg">
<g clip-path="url(#clip0_661_2486)">
<path d="M32 16C32 7.16344 24.8366 0 16 0C7.16344 0 0 7.16344 0 16C0 24.8366 7.16344 32 16 32C24.8366 32 32 24.8366 32 16Z" fill="#8D91AB"/>
<path opacity="0.7" d="M16.3109 8.14209L7.15625 16.3021H25.2897L16.3109 24.4621" stroke="white" stroke-width="3"/>
<path d="M16.2254 11.1646C17.8945 11.1646 19.2476 9.81146 19.2476 8.14234C19.2476 6.47322 17.8945 5.12012 16.2254 5.12012C14.5562 5.12012 13.2031 6.47322 13.2031 8.14234C13.2031 9.81146 14.5562 11.1646 16.2254 11.1646Z" fill="black"/>
<path d="M16.2254 11.1646C17.8945 11.1646 19.2476 9.81146 19.2476 8.14234C19.2476 6.47322 17.8945 5.12012 16.2254 5.12012C14.5562 5.12012 13.2031 6.47322 13.2031 8.14234C13.2031 9.81146 14.5562 11.1646 16.2254 11.1646Z" fill="white"/>
<path d="M7.15504 19.022C8.82416 19.022 10.1773 17.6689 10.1773 15.9998C10.1773 14.3306 8.82416 12.9775 7.15504 12.9775C5.48592 12.9775 4.13281 14.3306 4.13281 15.9998C4.13281 17.6689 5.48592 19.022 7.15504 19.022Z" fill="black"/>
<path d="M7.15504 19.022C8.82416 19.022 10.1773 17.6689 10.1773 15.9998C10.1773 14.3306 8.82416 12.9775 7.15504 12.9775C5.48592 12.9775 4.13281 14.3306 4.13281 15.9998C4.13281 17.6689 5.48592 19.022 7.15504 19.022Z" fill="white"/>
<path d="M16.2254 26.8799C17.8945 26.8799 19.2476 25.5268 19.2476 23.8577C19.2476 22.1886 17.8945 20.8354 16.2254 20.8354C14.5562 20.8354 13.2031 22.1886 13.2031 23.8577C13.2031 25.5268 14.5562 26.8799 16.2254 26.8799Z" fill="black"/>
<path d="M16.2254 26.8799C17.8945 26.8799 19.2476 25.5268 19.2476 23.8577C19.2476 22.1886 17.8945 20.8354 16.2254 20.8354C14.5562 20.8354 13.2031 22.1886 13.2031 23.8577C13.2031 25.5268 14.5562 26.8799 16.2254 26.8799Z" fill="white"/>
<path d="M24.6863 19.022C26.3554 19.022 27.7085 17.6689 27.7085 15.9998C27.7085 14.3306 26.3554 12.9775 24.6863 12.9775C23.0172 12.9775 21.6641 14.3306 21.6641 15.9998C21.6641 17.6689 23.0172 19.022 24.6863 19.022Z" fill="black"/>
<path d="M24.6863 19.022C26.3554 19.022 27.7085 17.6689 27.7085 15.9998C27.7085 14.3306 26.3554 12.9775 24.6863 12.9775C23.0172 12.9775 21.6641 14.3306 21.6641 15.9998C21.6641 17.6689 23.0172 19.022 24.6863 19.022Z" fill="white"/>
</g>
<defs>
<clipPath id="clip0_661_2486">
<rect width="32" height="32" fill="white"/>
</clipPath>
</defs>
</svg>
