<svg width="32" height="32" viewBox="0 0 32 32" fill="none" xmlns="http://www.w3.org/2000/svg">
<path d="M28.4264 7.16503C27.6616 5.8202 26.2922 5.01478 24.7626 5.01478H16.3278C16.2186 5.00738 16.1092 5 16 5C15.8908 5 15.7815 5.00738 15.6723 5.01478H7.23744C5.70782 5.01478 4.33842 5.8202 3.57361 7.16503C2.8088 8.50982 2.8088 10.1133 3.57361 11.4582L12.3362 26.8498C13.101 28.1947 14.4705 29 16 29C17.5296 29 18.899 28.1947 19.6639 26.8498L28.4264 11.4582C29.1912 10.1206 29.1912 8.50982 28.4264 7.16503ZM17.6389 25.6676C17.2965 26.2661 16.6847 26.6282 16 26.6282C15.3153 26.6282 14.7035 26.2661 14.3611 25.6676L9.42996 17.0075L14.3611 8.33986C14.6671 7.80047 15.1842 7.46055 15.7815 7.39409H16.2186C16.8158 7.46055 17.3331 7.80781 17.6389 8.33986L22.5701 17L17.6389 25.6676Z" fill="white"/>
</svg>
