<svg width="32" height="32" viewBox="0 0 32 32" fill="none" xmlns="http://www.w3.org/2000/svg">
<g clip-path="url(#clip0_661_2479)">
<path d="M32 16C32 7.16344 24.8366 0 16 0C7.16344 0 0 7.16344 0 16C0 24.8366 7.16344 32 16 32C24.8366 32 32 24.8366 32 16Z" fill="#8D91AB"/>
<path fill-rule="evenodd" clip-rule="evenodd" d="M15.9963 27.52C22.3588 27.52 27.5166 22.3622 27.5166 16C27.5166 9.63771 22.3588 4.47998 15.9966 4.47998C9.63429 4.47998 4.47656 9.63771 4.47656 16C4.47656 17.8155 4.89658 19.5331 5.64469 21.0609L8.53805 18.1678C8.33407 17.4632 8.2309 16.7333 8.23162 15.9997C8.23162 11.7113 11.7081 8.23457 15.9967 8.23457C20.2855 8.23457 23.7622 11.7113 23.7622 16C23.7622 20.2886 20.2852 23.7651 15.9963 23.7651C15.2547 23.7651 14.5374 23.6614 13.8582 23.4672L10.9614 26.3643C12.5301 27.1273 14.2519 27.5225 15.9963 27.52Z" fill="white"/>
<path d="M10.946 23.9827C10.7534 24.1752 10.5248 24.328 10.2732 24.4321C10.0217 24.5363 9.75201 24.5899 9.47969 24.5899C9.20739 24.5899 8.93774 24.5363 8.68617 24.432C8.4346 24.3278 8.20601 24.175 8.01348 23.9825C7.82094 23.7899 7.66822 23.5613 7.56403 23.3097C7.45983 23.0581 7.40622 22.7885 7.40625 22.5161C7.40627 22.2438 7.45991 21.9742 7.56415 21.7227C7.66838 21.471 7.82113 21.2425 8.01371 21.0499C8.40259 20.6611 8.93003 20.4425 9.48001 20.4425C10.03 20.4425 10.5574 20.6609 10.9463 21.0499C11.3353 21.4387 11.5538 21.9662 11.5538 22.5161C11.5538 23.0661 11.3353 23.5936 10.9465 23.9825L10.946 23.9827ZM18.9918 15.9996C18.9918 17.6539 17.6509 18.9949 15.9966 18.9949C14.3423 18.9949 13.0014 17.6539 13.0014 15.9996C13.0014 14.3453 14.3423 13.0044 15.9966 13.0044C17.6509 13.0044 18.9918 14.3453 18.9918 15.9996Z" fill="white"/>
</g>
<defs>
<clipPath id="clip0_661_2479">
<rect width="32" height="32" fill="white"/>
</clipPath>
</defs>
</svg>
